<svg xmlns="http://www.w3.org/2000/svg" viewBox="0 0 128 128" role="img" aria-label="Rhumb Protocol mark">
  <defs>
    <linearGradient id="bearing" x1="46" y1="104" x2="96" y2="54" gradientUnits="userSpaceOnUse">
      <stop stop-color="#0f6b73"/>
      <stop offset=".58" stop-color="#23a7a6"/>
      <stop offset="1" stop-color="#d04f2f"/>
    </linearGradient>
    <clipPath id="pole-mask">
      <path d="M0 0H128V128H0Z M64 64 m-3.4 0 a3.4 3.4 0 1 0 6.8 0 a3.4 3.4 0 1 0 -6.8 0 Z" clip-rule="evenodd"/>
    </clipPath>
  </defs>
  <rect x="2" y="2" width="124" height="124" rx="28" fill="#0d1b2a"/>
  <rect x="6" y="6" width="116" height="116" rx="24" fill="none" stroke="#f7f1e4" stroke-opacity=".08" stroke-width="1.5"/>
  <g stroke="#f7f1e4" stroke-opacity=".18" stroke-width="1.25" stroke-linecap="round">
    <line x1="64" y1="64" x2="64" y2="20"/>
    <line x1="64" y1="64" x2="95.11" y2="32.89"/>
    <line x1="64" y1="64" x2="108" y2="64"/>
    <line x1="64" y1="64" x2="95.11" y2="95.11"/>
    <line x1="64" y1="64" x2="64" y2="108"/>
    <line x1="64" y1="64" x2="32.89" y2="95.11"/>
    <line x1="64" y1="64" x2="20" y2="64"/>
    <line x1="64" y1="64" x2="32.89" y2="32.89"/>
  </g>
  <circle cx="64" cy="64" r="46" fill="none" stroke="#f7f1e4" stroke-opacity=".24" stroke-width="1.5"/>
  <circle cx="64" cy="64" r="24" fill="none" stroke="#f7f1e4" stroke-opacity=".11" stroke-width="1"/>
  <path clip-path="url(#pole-mask)"
        d="M110.00 64.00C106.98 71.29 102.33 77.71 96.07 82.52C91.03 86.38 85.20 88.99 78.91 89.82C73.84 90.48 68.72 89.95 64.00 88.00C60.20 86.42 56.85 84.00 54.34 80.73C52.32 78.10 50.96 75.06 50.53 71.78C50.18 69.13 50.46 66.46 51.48 64.00C52.30 62.02 53.57 60.27 55.27 58.96C56.64 57.91 58.23 57.20 59.94 56.97C61.32 56.79 62.71 56.94 64.00 57.47C65.03 57.90 65.95 58.56 66.63 59.45C67.18 60.16 67.55 60.99 67.67 61.88C67.76 62.60 67.69 63.33 67.41 64.00C67.18 64.54 66.84 65.02 66.38 65.37C66.00 65.66 65.57 65.85 65.10 65.91C64.73 65.96 64.35 65.92 64.00 65.78C63.72 65.66 63.47 65.48 63.28 65.24C63.13 65.04 63.03 64.82 63.00 64.58C62.98 64.38 63.00 64.18 63.07 64.00"
        fill="none" stroke="url(#bearing)" stroke-width="4.5" stroke-linecap="round" stroke-linejoin="round"/>
  <circle cx="110" cy="64" r="3.6" fill="#f7f1e4"/>
  <circle cx="110" cy="64" r="1.7" fill="#0f6b73"/>
  <circle cx="64" cy="64" r="3.4" fill="#c89b3c"/>
  <circle cx="64" cy="64" r="1.4" fill="#0d1b2a"/>
</svg>
